<svg xmlns="http://www.w3.org/2000/svg" viewBox="0 0 512 512">
  <defs>
    <linearGradient id="g" x1="0" y1="0" x2="1" y2="1">
      <stop offset="0" stop-color="#12b8a8"/>
      <stop offset="1" stop-color="#0b6e66"/>
    </linearGradient>
  </defs>

  <rect width="512" height="512" rx="112" fill="url(#g)"/>

  <!-- Левая страница -->
  <path d="M256 140
           C230 120 180 118 130 132
           L130 372
           C180 358 230 362 256 380
           Z"
        fill="#ffffff" opacity="0.95"/>

  <!-- Правая страница -->
  <path d="M256 140
           C282 120 332 118 382 132
           L382 372
           C332 358 282 362 256 380
           Z"
        fill="#ffffff" opacity="0.8"/>

  <!-- Корешок -->
  <line x1="256" y1="140" x2="256" y2="380"
        stroke="#0b6e66" stroke-width="6" opacity="0.35"/>

  <!-- Строчки текста слева -->
  <line x1="160" y1="200" x2="230" y2="196" stroke="#0b6e66" stroke-width="8" stroke-linecap="round" opacity="0.5"/>
  <line x1="160" y1="232" x2="230" y2="228" stroke="#0b6e66" stroke-width="8" stroke-linecap="round" opacity="0.5"/>
  <line x1="160" y1="264" x2="215" y2="262" stroke="#0b6e66" stroke-width="8" stroke-linecap="round" opacity="0.5"/>

  <!-- Строчки текста справа -->
  <line x1="282" y1="196" x2="352" y2="200" stroke="#0b6e66" stroke-width="8" stroke-linecap="round" opacity="0.4"/>
  <line x1="282" y1="228" x2="352" y2="232" stroke="#0b6e66" stroke-width="8" stroke-linecap="round" opacity="0.4"/>
  <line x1="282" y1="260" x2="330" y2="264" stroke="#0b6e66" stroke-width="8" stroke-linecap="round" opacity="0.4"/>
</svg>